ffmpeg started on 2025-05-05 at 10:53:29
Report written to "D:\Convert\FFMetrics\reports\psnr_report-6.txt"
Log level: 32
Command line:
ffmpeg -hide_banner -nostdin -i "G:\\\xc0\xed\xe8\xec\xe5\\\xce\xed\xe3\xee\xe8\xed\xe3\xe8\\!_35_\xcb\xe5\xf2\xee_2024\\JamClub-1\\\xdd\xf2\xee\xf2 \xec\xe8\xf0 \xf1\xeb\xe8\xf8\xea\xee\xec \xed\xe5\xf1\xee\xe2\xe5\xf0\xf8\xe5\xed\xe5\xed\\JamClub_Kono_Sekai_wa_Fukanzen_Sugiru_03_1080p_HEVC.mkv" -i "G:\\\xc0\xed\xe8\xec\xe5\\\xce\xed\xe3\xee\xe8\xed\xe3\xe8\\!_35_\xcb\xe5\xf2\xee_2024\\JamClub-1\\\xdd\xf2\xee\xf2 \xec\xe8\xf0 \xf1\xeb\xe8\xf8\xea\xee\xec \xed\xe5\xf1\xee\xe2\xe5\xf0\xf8\xe5\xed\xe5\xed\\JamClub_Kono_Sekai_wa_Fukanzen_Sugiru_03_1080p.mp4" -lavfi "[0:v]settb=AVTB,setpts=PTS-STARTPTS,format=pix_fmts=yuv420p10,fps=24000/1001,scale=1920:1080:flags=bicubic[main];[1:v]settb=AVTB,setpts=PTS-STARTPTS,format=pix_fmts=yuv420p,fps=24000/1001,scale=1920:1080:flags=bicubic[ref];[main][ref]psnr=eof_action=endall:stats_file='D\\:/Convert/FFMetrics/logs/psnr_logfile-6.txt'" -f null -
Input #0, matroska,webm, from 'G:\Аниме\Онгоинги\!_35_Лето_2024\JamClub-1\Этот мир слишком несовершенен\JamClub_Kono_Sekai_wa_Fukanzen_Sugiru_03_1080p_HEVC.mkv':
  Metadata:
    COMPATIBLE_BRANDS: isomiso2avc1mp41
    MAJOR_BRAND     : isom
    MINOR_VERSION   : 512
    ENCODER         : Lavf61.7.100
  Duration: 00:24:27.35, start: -0.001000, bitrate: 1346 kb/s
  Stream #0:0: Video: hevc (Main 10), yuv420p10le(tv, bt709, progressive), 1920x1080 [SAR 1:1 DAR 16:9], 23.98 fps, 23.98 tbr, 1k tbn (default)
      Metadata:
        HANDLER_NAME    : VideoHandler
        VENDOR_ID       : [0][0][0][0]
        ENCODER         : Lavc61.19.100 libx265
        BPS             : 1147788
        DURATION        : 00:24:27.215708333
        NUMBER_OF_FRAMES: 35178
        NUMBER_OF_BYTES : 210506585
        _STATISTICS_WRITING_APP: mkvpropedit v66.0.0 ('Josie') 64-bit
        _STATISTICS_WRITING_DATE_UTC: 2025-05-04 15:42:25
        _STATISTICS_TAGS: BPS DURATION NUMBER_OF_FRAMES NUMBER_OF_BYTES
  Stream #0:1(eng): Audio: aac (LC), 48000 Hz, stereo, fltp (default)
      Metadata:
        HANDLER_NAME    : SoundHandler
        VENDOR_ID       : [0][0][0][0]
        ENCODER         : Lavc61.19.100 aac
        BPS             : 195060
        DURATION        : 00:24:27.309000000
        NUMBER_OF_FRAMES: 68781
        NUMBER_OF_BYTES : 35776833
        _STATISTICS_WRITING_APP: mkvpropedit v66.0.0 ('Josie') 64-bit
        _STATISTICS_WRITING_DATE_UTC: 2025-05-04 15:42:25
        _STATISTICS_TAGS: BPS DURATION NUMBER_OF_FRAMES NUMBER_OF_BYTES
Input #1, mov,mp4,m4a,3gp,3g2,mj2, from 'G:\Аниме\Онгоинги\!_35_Лето_2024\JamClub-1\Этот мир слишком несовершенен\JamClub_Kono_Sekai_wa_Fukanzen_Sugiru_03_1080p.mp4':
  Metadata:
    major_brand     : isom
    minor_version   : 512
    compatible_brands: isomiso2avc1mp41
    encoder         : Lavf60.16.100
  Duration: 00:24:27.33, start: 0.000000, bitrate: 3683 kb/s
  Stream #1:0[0x1](und): Video: h264 (High) (avc1 / 0x31637661), yuv420p(progressive), 1920x1080 [SAR 1:1 DAR 16:9], 3485 kb/s, 23.98 fps, 23.98 tbr, 90k tbn (default)
      Metadata:
        handler_name    : VideoHandler
        vendor_id       : [0][0][0][0]
  Stream #1:1[0x2](eng): Audio: aac (LC) (mp4a / 0x6134706D), 48000 Hz, stereo, fltp, 191 kb/s (default)
      Metadata:
        handler_name    : SoundHandler
        vendor_id       : [0][0][0][0]
Stream mapping:
  Stream #0:0 (hevc) -> settb:default
  Stream #1:0 (h264) -> settb:default
  psnr:default -> Stream #0:0 (wrapped_avframe)
  Stream #0:1 -> #0:1 (aac (native) -> pcm_s16le (native))
Output #0, null, to 'pipe:':
  Metadata:
    COMPATIBLE_BRANDS: isomiso2avc1mp41
    MAJOR_BRAND     : isom
    MINOR_VERSION   : 512
    encoder         : Lavf61.7.100
  Stream #0:0: Video: wrapped_avframe, yuv420p10le(tv, bt709, progressive), 1920x1080 [SAR 1:1 DAR 16:9], q=2-31, 200 kb/s, 23.98 fps, 23.98 tbn
      Metadata:
        encoder         : Lavc61.19.100 wrapped_avframe
  Stream #0:1(eng): Audio: pcm_s16le, 48000 Hz, stereo, s16, 1536 kb/s (default)
      Metadata:
        HANDLER_NAME    : SoundHandler
        VENDOR_ID       : [0][0][0][0]
        _STATISTICS_TAGS: BPS DURATION NUMBER_OF_FRAMES NUMBER_OF_BYTES
        BPS             : 195060
        DURATION        : 00:24:27.309000000
        NUMBER_OF_FRAMES: 68781
        NUMBER_OF_BYTES : 35776833
        _STATISTICS_WRITING_APP: mkvpropedit v66.0.0 ('Josie') 64-bit
        _STATISTICS_WRITING_DATE_UTC: 2025-05-04 15:42:25
        encoder         : Lavc61.19.100 pcm_s16le
frame=  112 fps=0.0 q=-0.0 size=N/A time=00:00:04.67 bitrate=N/A speed=8.91x    frame=  269 fps=260 q=-0.0 size=N/A time=00:00:11.21 bitrate=N/A speed=10.9x    frame=  466 fps=300 q=-0.0 size=N/A time=00:00:19.43 bitrate=N/A speed=12.5x    frame=  634 fps=307 q=-0.0 size=N/A time=00:00:26.44 bitrate=N/A speed=12.8x    frame=  872 fps=337 q=-0.0 size=N/A time=00:00:36.36 bitrate=N/A speed=14.1x    frame= 1071 fps=346 q=-0.0 size=N/A time=00:00:44.66 bitrate=N/A speed=14.4x    frame= 1259 fps=348 q=-0.0 size=N/A time=00:00:52.51 bitrate=N/A speed=14.5x    frame= 1490 fps=361 q=-0.0 size=N/A time=00:01:02.14 bitrate=N/A speed=15.1x    frame= 1738 fps=374 q=-0.0 size=N/A time=00:01:12.48 bitrate=N/A speed=15.6x    frame= 2023 fps=392 q=-0.0 size=N/A time=00:01:24.37 bitrate=N/A speed=16.4x    frame= 2253 fps=397 q=-0.0 size=N/A time=00:01:33.96 bitrate=N/A speed=16.5x    frame= 2508 fps=405 q=-0.0 size=N/A time=00:01:44.60 bitrate=N/A speed=16.9x    frame= 2708 fps=404 q=-0.0 size=N/A time=00:01:52.94 bitrate=N/A speed=16.8x    frame= 2958 fps=409 q=-0.0 size=N/A time=00:02:03.37 bitrate=N/A speed=17.1x    frame= 3232 fps=418 q=-0.0 size=N/A time=00:02:14.80 bitrate=N/A speed=17.4x    frame= 3421 fps=414 q=-0.0 size=N/A time=00:02:22.68 bitrate=N/A speed=17.3x    frame= 3558 fps=406 q=-0.0 size=N/A time=00:02:28.39 bitrate=N/A speed=16.9x    frame= 3688 fps=397 q=-0.0 size=N/A time=00:02:33.82 bitrate=N/A speed=16.6x    frame= 3881 fps=396 q=-0.0 size=N/A time=00:02:41.87 bitrate=N/A speed=16.5x    frame= 4108 fps=398 q=-0.0 size=N/A time=00:02:51.33 bitrate=N/A speed=16.6x    frame= 4324 fps=399 q=-0.0 size=N/A time=00:03:00.34 bitrate=N/A speed=16.7x    frame= 4517 fps=398 q=-0.0 size=N/A time=00:03:08.39 bitrate=N/A speed=16.6x    frame= 4725 fps=398 q=-0.0 size=N/A time=00:03:17.07 bitrate=N/A speed=16.6x    frame= 4908 fps=396 q=-0.0 size=N/A time=00:03:24.70 bitrate=N/A speed=16.5x    frame= 5080 fps=394 q=-0.0 size=N/A time=00:03:31.87 bitrate=N/A speed=16.4x    frame= 5251 fps=392 q=-0.0 size=N/A time=00:03:39.01 bitrate=N/A speed=16.3x    frame= 5483 fps=393 q=-0.0 size=N/A time=00:03:48.68 bitrate=N/A speed=16.4x    frame= 5704 fps=395 q=-0.0 size=N/A time=00:03:57.90 bitrate=N/A speed=16.5x    frame= 5927 fps=396 q=-0.0 size=N/A time=00:04:07.20 bitrate=N/A speed=16.5x    frame= 6174 fps=399 q=-0.0 size=N/A time=00:04:17.50 bitrate=N/A speed=16.6x    frame= 6437 fps=402 q=-0.0 size=N/A time=00:04:28.47 bitrate=N/A speed=16.8x    frame= 6684 fps=405 q=-0.0 size=N/A time=00:04:38.77 bitrate=N/A speed=16.9x    frame= 6932 fps=407 q=-0.0 size=N/A time=00:04:49.12 bitrate=N/A speed=  17x    frame= 7185 fps=410 q=-0.0 size=N/A time=00:04:59.67 bitrate=N/A speed=17.1x    frame= 7448 fps=412 q=-0.0 size=N/A time=00:05:10.64 bitrate=N/A speed=17.2x    frame= 7724 fps=416 q=-0.0 size=N/A time=00:05:22.15 bitrate=N/A speed=17.4x    frame= 7968 fps=417 q=-0.0 size=N/A time=00:05:32.33 bitrate=N/A speed=17.4x    frame= 8225 fps=420 q=-0.0 size=N/A time=00:05:43.05 bitrate=N/A speed=17.5x    frame= 8462 fps=421 q=-0.0 size=N/A time=00:05:52.93 bitrate=N/A speed=17.5x    frame= 8686 fps=421 q=-0.0 size=N/A time=00:06:02.27 bitrate=N/A speed=17.6x    frame= 8937 fps=423 q=-0.0 size=N/A time=00:06:12.74 bitrate=N/A speed=17.6x    frame= 9181 fps=424 q=-0.0 size=N/A time=00:06:22.92 bitrate=N/A speed=17.7x    frame= 9439 fps=426 q=-0.0 size=N/A time=00:06:33.68 bitrate=N/A speed=17.7x    frame= 9700 fps=428 q=-0.0 size=N/A time=00:06:44.57 bitrate=N/A speed=17.8x    frame= 9961 fps=429 q=-0.0 size=N/A time=00:06:55.45 bitrate=N/A speed=17.9x    frame=10206 fps=430 q=-0.0 size=N/A time=00:07:05.67 bitrate=N/A speed=17.9x    frame=10447 fps=431 q=-0.0 size=N/A time=00:07:15.72 bitrate=N/A speed=  18x    frame=10690 fps=432 q=-0.0 size=N/A time=00:07:25.86 bitrate=N/A speed=  18x    frame=10953 fps=434 q=-0.0 size=N/A time=00:07:36.83 bitrate=N/A speed=18.1x    frame=11213 fps=435 q=-0.0 size=N/A time=00:07:47.67 bitrate=N/A speed=18.1x    frame=11467 fps=436 q=-0.0 size=N/A time=00:07:58.26 bitrate=N/A speed=18.2x    frame=11700 fps=436 q=-0.0 size=N/A time=00:08:07.98 bitrate=N/A speed=18.2x    frame=11935 fps=437 q=-0.0 size=N/A time=00:08:17.78 bitrate=N/A speed=18.2x    frame=12186 fps=437 q=-0.0 size=N/A time=00:08:28.25 bitrate=N/A speed=18.2x    frame=12424 fps=438 q=-0.0 size=N/A time=00:08:38.18 bitrate=N/A speed=18.3x    frame=12687 fps=439 q=-0.0 size=N/A time=00:08:49.15 bitrate=N/A speed=18.3x    frame=12927 fps=440 q=-0.0 size=N/A time=00:08:59.16 bitrate=N/A speed=18.3x    frame=13176 fps=440 q=-0.0 size=N/A time=00:09:09.54 bitrate=N/A speed=18.4x    frame=13424 fps=441 q=-0.0 size=N/A time=00:09:19.89 bitrate=N/A speed=18.4x    frame=13633 fps=440 q=-0.0 size=N/A time=00:09:28.60 bitrate=N/A speed=18.4x    frame=13868 fps=441 q=-0.0 size=N/A time=00:09:38.41 bitrate=N/A speed=18.4x    frame=14079 fps=440 q=-0.0 size=N/A time=00:09:47.21 bitrate=N/A speed=18.4x    frame=14307 fps=440 q=-0.0 size=N/A time=00:09:56.72 bitrate=N/A speed=18.4x    frame=14510 fps=440 q=-0.0 size=N/A time=00:10:05.18 bitrate=N/A speed=18.3x    frame=14720 fps=439 q=-0.0 size=N/A time=00:10:13.94 bitrate=N/A speed=18.3x    frame=14940 fps=439 q=-0.0 size=N/A time=00:10:23.12 bitrate=N/A speed=18.3x    frame=15143 fps=438 q=-0.0 size=N/A time=00:10:31.58 bitrate=N/A speed=18.3x    frame=15324 fps=437 q=-0.0 size=N/A time=00:10:39.13 bitrate=N/A speed=18.2x    frame=15547 fps=437 q=-0.0 size=N/A time=00:10:48.43 bitrate=N/A speed=18.2x    frame=15793 fps=437 q=-0.0 size=N/A time=00:10:58.69 bitrate=N/A speed=18.2x    frame=16005 fps=437 q=-0.0 size=N/A time=00:11:07.54 bitrate=N/A speed=18.2x    frame=16245 fps=437 q=-0.0 size=N/A time=00:11:17.55 bitrate=N/A speed=18.2x    frame=16497 fps=438 q=-0.0 size=N/A time=00:11:28.06 bitrate=N/A speed=18.3x    frame=16735 fps=438 q=-0.0 size=N/A time=00:11:37.98 bitrate=N/A speed=18.3x    frame=17003 fps=440 q=-0.0 size=N/A time=00:11:49.16 bitrate=N/A speed=18.3x    frame=17277 fps=441 q=-0.0 size=N/A time=00:12:00.59 bitrate=N/A speed=18.4x    frame=17516 fps=441 q=-0.0 size=N/A time=00:12:10.56 bitrate=N/A speed=18.4x    frame=17770 fps=442 q=-0.0 size=N/A time=00:12:21.15 bitrate=N/A speed=18.4x    frame=18033 fps=442 q=-0.0 size=N/A time=00:12:32.12 bitrate=N/A speed=18.5x    frame=18278 fps=443 q=-0.0 size=N/A time=00:12:42.34 bitrate=N/A speed=18.5x    frame=18519 fps=443 q=-0.0 size=N/A time=00:12:52.39 bitrate=N/A speed=18.5x    frame=18764 fps=444 q=-0.0 size=N/A time=00:13:02.61 bitrate=N/A speed=18.5x    frame=19022 fps=444 q=-0.0 size=N/A time=00:13:13.37 bitrate=N/A speed=18.5x    frame=19280 fps=445 q=-0.0 size=N/A time=00:13:24.13 bitrate=N/A speed=18.6x    frame=19536 fps=446 q=-0.0 size=N/A time=00:13:34.81 bitrate=N/A speed=18.6x    frame=19796 fps=446 q=-0.0 size=N/A time=00:13:45.65 bitrate=N/A speed=18.6x    frame=20059 fps=447 q=-0.0 size=N/A time=00:13:56.62 bitrate=N/A speed=18.6x    frame=20349 fps=448 q=-0.0 size=N/A time=00:14:08.72 bitrate=N/A speed=18.7x    frame=20613 fps=449 q=-0.0 size=N/A time=00:14:19.73 bitrate=N/A speed=18.7x    frame=20871 fps=450 q=-0.0 size=N/A time=00:14:30.49 bitrate=N/A speed=18.7x    frame=21144 fps=450 q=-0.0 size=N/A time=00:14:41.88 bitrate=N/A speed=18.8x    frame=21427 fps=451 q=-0.0 size=N/A time=00:14:53.68 bitrate=N/A speed=18.8x    frame=21685 fps=452 q=-0.0 size=N/A time=00:15:04.44 bitrate=N/A speed=18.9x    frame=21951 fps=453 q=-0.0 size=N/A time=00:15:15.53 bitrate=N/A speed=18.9x    frame=22222 fps=453 q=-0.0 size=N/A time=00:15:26.84 bitrate=N/A speed=18.9x    frame=22459 fps=454 q=-0.0 size=N/A time=00:15:36.72 bitrate=N/A speed=18.9x    frame=22691 fps=454 q=-0.0 size=N/A time=00:15:46.40 bitrate=N/A speed=18.9x    frame=22926 fps=453 q=-0.0 size=N/A time=00:15:56.20 bitrate=N/A speed=18.9x    frame=23191 fps=454 q=-0.0 size=N/A time=00:16:07.25 bitrate=N/A speed=18.9x    frame=23464 fps=455 q=-0.0 size=N/A time=00:16:18.64 bitrate=N/A speed=  19x    frame=23726 fps=455 q=-0.0 size=N/A time=00:16:29.57 bitrate=N/A speed=  19x    frame=24000 fps=456 q=-0.0 size=N/A time=00:16:41.00 bitrate=N/A speed=  19x    frame=24288 fps=457 q=-0.0 size=N/A time=00:16:53.01 bitrate=N/A speed=19.1x    frame=24529 fps=457 q=-0.0 size=N/A time=00:17:03.06 bitrate=N/A speed=19.1x    frame=24799 fps=458 q=-0.0 size=N/A time=00:17:14.32 bitrate=N/A speed=19.1x    frame=25028 fps=458 q=-0.0 size=N/A time=00:17:23.87 bitrate=N/A speed=19.1x    frame=25267 fps=458 q=-0.0 size=N/A time=00:17:33.84 bitrate=N/A speed=19.1x    frame=25500 fps=458 q=-0.0 size=N/A time=00:17:43.56 bitrate=N/A speed=19.1x    frame=25742 fps=458 q=-0.0 size=N/A time=00:17:53.65 bitrate=N/A speed=19.1x    frame=25947 fps=457 q=-0.0 size=N/A time=00:18:02.20 bitrate=N/A speed=19.1x    frame=26177 fps=457 q=-0.0 size=N/A time=00:18:11.79 bitrate=N/A speed=19.1x    frame=26432 fps=457 q=-0.0 size=N/A time=00:18:22.43 bitrate=N/A speed=19.1x    frame=26671 fps=457 q=-0.0 size=N/A time=00:18:32.40 bitrate=N/A speed=19.1x    frame=26936 fps=458 q=-0.0 size=N/A time=00:18:43.45 bitrate=N/A speed=19.1x    frame=27195 fps=458 q=-0.0 size=N/A time=00:18:54.25 bitrate=N/A speed=19.1x    frame=27451 fps=459 q=-0.0 size=N/A time=00:19:04.93 bitrate=N/A speed=19.1x    frame=27690 fps=459 q=-0.0 size=N/A time=00:19:14.90 bitrate=N/A speed=19.1x    frame=27938 fps=459 q=-0.0 size=N/A time=00:19:25.24 bitrate=N/A speed=19.1x    frame=28175 fps=459 q=-0.0 size=N/A time=00:19:35.13 bitrate=N/A speed=19.1x    frame=28425 fps=459 q=-0.0 size=N/A time=00:19:45.55 bitrate=N/A speed=19.1x    frame=28689 fps=460 q=-0.0 size=N/A time=00:19:56.57 bitrate=N/A speed=19.2x    frame=28944 fps=460 q=-0.0 size=N/A time=00:20:07.20 bitrate=N/A speed=19.2x    frame=29175 fps=460 q=-0.0 size=N/A time=00:20:16.84 bitrate=N/A speed=19.2x    frame=29395 fps=459 q=-0.0 size=N/A time=00:20:26.01 bitrate=N/A speed=19.2x    frame=29648 fps=460 q=-0.0 size=N/A time=00:20:36.56 bitrate=N/A speed=19.2x    frame=29936 fps=460 q=-0.0 size=N/A time=00:20:48.58 bitrate=N/A speed=19.2x    frame=30214 fps=461 q=-0.0 size=N/A time=00:21:00.17 bitrate=N/A speed=19.2x    frame=30455 fps=461 q=-0.0 size=N/A time=00:21:10.22 bitrate=N/A speed=19.2x    frame=30724 fps=462 q=-0.0 size=N/A time=00:21:21.44 bitrate=N/A speed=19.3x    frame=30974 fps=462 q=-0.0 size=N/A time=00:21:31.87 bitrate=N/A speed=19.3x    frame=31215 fps=462 q=-0.0 size=N/A time=00:21:41.92 bitrate=N/A speed=19.3x    frame=31421 fps=461 q=-0.0 size=N/A time=00:21:50.51 bitrate=N/A speed=19.2x    frame=31651 fps=461 q=-0.0 size=N/A time=00:22:00.11 bitrate=N/A speed=19.2x    frame=31876 fps=461 q=-0.0 size=N/A time=00:22:09.49 bitrate=N/A speed=19.2x    frame=32124 fps=461 q=-0.0 size=N/A time=00:22:19.83 bitrate=N/A speed=19.2x    frame=32373 fps=461 q=-0.0 size=N/A time=00:22:30.22 bitrate=N/A speed=19.2x    frame=32625 fps=462 q=-0.0 size=N/A time=00:22:40.73 bitrate=N/A speed=19.3x    frame=32844 fps=461 q=-0.0 size=N/A time=00:22:49.86 bitrate=N/A speed=19.2x    frame=33084 fps=461 q=-0.0 size=N/A time=00:22:59.87 bitrate=N/A speed=19.2x    frame=33290 fps=461 q=-0.0 size=N/A time=00:23:08.47 bitrate=N/A speed=19.2x    frame=33506 fps=461 q=-0.0 size=N/A time=00:23:17.47 bitrate=N/A speed=19.2x    frame=33723 fps=460 q=-0.0 size=N/A time=00:23:26.53 bitrate=N/A speed=19.2x    frame=33928 fps=460 q=-0.0 size=N/A time=00:23:35.08 bitrate=N/A speed=19.2x    frame=34074 fps=459 q=-0.0 size=N/A time=00:23:41.16 bitrate=N/A speed=19.1x    frame=34298 fps=458 q=-0.0 size=N/A time=00:23:50.51 bitrate=N/A speed=19.1x    frame=34486 fps=458 q=-0.0 size=N/A time=00:23:58.35 bitrate=N/A speed=19.1x    frame=34694 fps=458 q=-0.0 size=N/A time=00:24:07.02 bitrate=N/A speed=19.1x    frame=34938 fps=458 q=-0.0 size=N/A time=00:24:17.20 bitrate=N/A speed=19.1x    frame=35145 fps=457 q=-0.0 size=N/A time=00:24:25.83 bitrate=N/A speed=19.1x    [Parsed_psnr_10 @ 00000253cf654040] PSNR y:48.350714 u:49.989359 v:50.319307 average:48.872099 min:36.928379 max:inf
[out#0/null @ 00000253c8ebec00] video:15116KiB audio:275124KiB subtitle:0KiB other streams:0KiB global headers:0KiB muxing overhead: unknown
frame=35178 fps=457 q=-0.0 Lsize=N/A time=00:24:27.21 bitrate=N/A speed=19.1x    
